<svg xmlns="http://www.w3.org/2000/svg" viewBox="0 0 256 256" width="256" height="256"><title>Offerlab</title><g transform="translate(-23.3 -25.64) scale(1.182)">
<g stroke="#1E1B4B" stroke-width="12" stroke-linejoin="round" stroke-linecap="round">
<path fill="#E0F2FE" d="M108 46 H148 V92.8 A72 72 0 1 1 108 92.8 Z"/>
</g>
<path fill="#C4B5FD" d="M68.4 150 C92 138 108 162 128 150 S164 138 187.6 150 A60 60 0 0 1 68.4 150 Z"/>
<path fill="#8B5CF6" d="M68 160 C92 148 108 172 128 160 S164 148 188 160 A60 60 0 0 1 68 160 Z"/>
<circle cx="110" cy="192" r="9" fill="#DDD6FE"/><circle cx="148" cy="204" r="6" fill="#DDD6FE"/><circle cx="152" cy="180" r="4" fill="#DDD6FE"/>
<circle cx="136" cy="118" r="6" fill="#7DD3FC"/><circle cx="122" cy="80" r="4" fill="#7DD3FC"/>
<path d="M82 146 A50 50 0 0 1 100 120" fill="none" stroke="#FFFFFF" stroke-width="10" stroke-linecap="round"/>
<g stroke="#1E1B4B" stroke-width="12" stroke-linejoin="round" stroke-linecap="round" fill="none">
<path d="M108 46 H148 V92.8 A72 72 0 1 1 108 92.8 Z"/>
</g>
<rect x="94" y="26" width="68" height="24" rx="12" fill="#FBBF24" stroke="#1E1B4B" stroke-width="12"/>

</g></svg>